<svg width="317" height="68" viewBox="0 0 317 68" fill="none" xmlns="http://www.w3.org/2000/svg">
<g filter="url(#filter0_d_25_75)">
<mask id="path-1-outside-1_25_75" maskUnits="userSpaceOnUse" x="3" y="-1" width="311" height="61" fill="black">
<rect fill="white" x="3" y="-1" width="311" height="61"/>
<path d="M25.224 55.448C21.9387 55.448 18.9947 54.9147 16.392 53.848C13.7893 52.7813 11.6987 51.2027 10.12 49.112C8.584 47.0213 7.77333 44.504 7.688 41.56H19.336C19.5067 43.224 20.0827 44.504 21.064 45.4C22.0453 46.2533 23.3253 46.68 24.904 46.68C26.5253 46.68 27.8053 46.3173 28.744 45.592C29.6827 44.824 30.152 43.7787 30.152 42.456C30.152 41.3467 29.768 40.4293 29 39.704C28.2747 38.9787 27.3573 38.3813 26.248 37.912C25.1813 37.4427 23.6453 36.9093 21.64 36.312C18.7387 35.416 16.3707 34.52 14.536 33.624C12.7013 32.728 11.1227 31.4053 9.8 29.656C8.47733 27.9067 7.816 25.624 7.816 22.808C7.816 18.6267 9.33067 15.3627 12.36 13.016C15.3893 10.6267 19.336 9.432 24.2 9.432C29.1493 9.432 33.1387 10.6267 36.168 13.016C39.1973 15.3627 40.8187 18.648 41.032 22.872H29.192C29.1067 21.4213 28.5733 20.2907 27.592 19.48C26.6107 18.6267 25.352 18.2 23.816 18.2C22.4933 18.2 21.4267 18.5627 20.616 19.288C19.8053 19.9707 19.4 20.9733 19.4 22.296C19.4 23.7467 20.0827 24.8773 21.448 25.688C22.8133 26.4987 24.9467 27.3733 27.848 28.312C30.7493 29.2933 33.096 30.232 34.888 31.128C36.7227 32.024 38.3013 33.3253 39.624 35.032C40.9467 36.7387 41.608 38.936 41.608 41.624C41.608 44.184 40.9467 46.5093 39.624 48.6C38.344 50.6907 36.4667 52.3547 33.992 53.592C31.5173 54.8293 28.5947 55.448 25.224 55.448ZM64.599 55.512C61.1003 55.512 57.943 54.7653 55.127 53.272C52.3537 51.7787 50.1563 49.6453 48.535 46.872C46.9563 44.0987 46.167 40.856 46.167 37.144C46.167 33.4747 46.9777 30.2533 48.599 27.48C50.2203 24.664 52.439 22.5093 55.255 21.016C58.071 19.5227 61.2283 18.776 64.727 18.776C68.2257 18.776 71.383 19.5227 74.199 21.016C77.015 22.5093 79.2337 24.664 80.855 27.48C82.4763 30.2533 83.287 33.4747 83.287 37.144C83.287 40.8133 82.455 44.056 80.791 46.872C79.1697 49.6453 76.9297 51.7787 74.071 53.272C71.255 54.7653 68.0977 55.512 64.599 55.512ZM64.599 46.04C66.6897 46.04 68.4603 45.272 69.911 43.736C71.4043 42.2 72.151 40.0027 72.151 37.144C72.151 34.2853 71.4257 32.088 69.975 30.552C68.567 29.016 66.8177 28.248 64.727 28.248C62.5937 28.248 60.823 29.016 59.415 30.552C58.007 32.0453 57.303 34.2427 57.303 37.144C57.303 40.0027 57.9857 42.2 59.351 43.736C60.759 45.272 62.5083 46.04 64.599 46.04ZM100.037 7.64V55H89.093V7.64H100.037ZM143.232 19.288V55H132.288V50.136C131.179 51.7147 129.664 52.9947 127.744 53.976C125.867 54.9147 123.776 55.384 121.472 55.384C118.741 55.384 116.331 54.7867 114.24 53.592C112.149 52.3547 110.528 50.584 109.376 48.28C108.224 45.976 107.648 43.2667 107.648 40.152V19.288H118.528V38.68C118.528 41.0693 119.147 42.9253 120.384 44.248C121.621 45.5707 123.285 46.232 125.376 46.232C127.509 46.232 129.195 45.5707 130.432 44.248C131.669 42.9253 132.288 41.0693 132.288 38.68V19.288H143.232ZM170.997 45.72V55H165.429C161.461 55 158.368 54.04 156.149 52.12C153.93 50.1573 152.821 46.9787 152.821 42.584V28.376H148.469V19.288H152.821V10.584H163.765V19.288H170.933V28.376H163.765V42.712C163.765 43.7787 164.021 44.5467 164.533 45.016C165.045 45.4853 165.898 45.72 167.093 45.72H170.997ZM182.597 15.576C180.677 15.576 179.098 15.0213 177.861 13.912C176.666 12.76 176.069 11.352 176.069 9.688C176.069 7.98133 176.666 6.57333 177.861 5.464C179.098 4.312 180.677 3.736 182.597 3.736C184.474 3.736 186.01 4.312 187.205 5.464C188.442 6.57333 189.061 7.98133 189.061 9.688C189.061 11.352 188.442 12.76 187.205 13.912C186.01 15.0213 184.474 15.576 182.597 15.576ZM188.037 19.288V55H177.093V19.288H188.037ZM212.224 55.512C208.725 55.512 205.568 54.7653 202.752 53.272C199.979 51.7787 197.781 49.6453 196.16 46.872C194.581 44.0987 193.792 40.856 193.792 37.144C193.792 33.4747 194.603 30.2533 196.224 27.48C197.845 24.664 200.064 22.5093 202.88 21.016C205.696 19.5227 208.853 18.776 212.352 18.776C215.851 18.776 219.008 19.5227 221.824 21.016C224.64 22.5093 226.859 24.664 228.48 27.48C230.101 30.2533 230.912 33.4747 230.912 37.144C230.912 40.8133 230.08 44.056 228.416 46.872C226.795 49.6453 224.555 51.7787 221.696 53.272C218.88 54.7653 215.723 55.512 212.224 55.512ZM212.224 46.04C214.315 46.04 216.085 45.272 217.536 43.736C219.029 42.2 219.776 40.0027 219.776 37.144C219.776 34.2853 219.051 32.088 217.6 30.552C216.192 29.016 214.443 28.248 212.352 28.248C210.219 28.248 208.448 29.016 207.04 30.552C205.632 32.0453 204.928 34.2427 204.928 37.144C204.928 40.0027 205.611 42.2 206.976 43.736C208.384 45.272 210.133 46.04 212.224 46.04ZM258.478 18.904C262.659 18.904 265.987 20.2693 268.462 23C270.979 25.688 272.238 29.4 272.238 34.136V55H261.358V35.608C261.358 33.2187 260.739 31.3627 259.502 30.04C258.265 28.7173 256.601 28.056 254.51 28.056C252.419 28.056 250.755 28.7173 249.518 30.04C248.281 31.3627 247.662 33.2187 247.662 35.608V55H236.718V19.288H247.662V24.024C248.771 22.4453 250.265 21.208 252.142 20.312C254.019 19.3733 256.131 18.904 258.478 18.904ZM294.371 55.512C291.256 55.512 288.483 54.9787 286.051 53.912C283.619 52.8453 281.699 51.3947 280.291 49.56C278.883 47.6827 278.094 45.592 277.923 43.288H288.739C288.867 44.5253 289.443 45.528 290.467 46.296C291.491 47.064 292.75 47.448 294.243 47.448C295.608 47.448 296.654 47.192 297.379 46.68C298.147 46.1253 298.531 45.4213 298.531 44.568C298.531 43.544 297.998 42.7973 296.931 42.328C295.864 41.816 294.136 41.2613 291.747 40.664C289.187 40.0667 287.054 39.448 285.347 38.808C283.64 38.1253 282.168 37.08 280.931 35.672C279.694 34.2213 279.075 32.28 279.075 29.848C279.075 27.8 279.63 25.944 280.739 24.28C281.891 22.5733 283.555 21.2293 285.731 20.248C287.95 19.2667 290.574 18.776 293.603 18.776C298.083 18.776 301.603 19.8853 304.163 22.104C306.766 24.3227 308.259 27.2667 308.643 30.936H298.531C298.36 29.6987 297.806 28.7173 296.867 27.992C295.971 27.2667 294.776 26.904 293.283 26.904C292.003 26.904 291.022 27.16 290.339 27.672C289.656 28.1413 289.315 28.8027 289.315 29.656C289.315 30.68 289.848 31.448 290.915 31.96C292.024 32.472 293.731 32.984 296.035 33.496C298.68 34.1787 300.835 34.8613 302.499 35.544C304.163 36.184 305.614 37.2507 306.851 38.744C308.131 40.1947 308.792 42.1573 308.835 44.632C308.835 46.7227 308.238 48.6 307.043 50.264C305.891 51.8853 304.206 53.1653 301.987 54.104C299.811 55.0427 297.272 55.512 294.371 55.512Z"/>
</mask>
<path d="M25.224 55.448C21.9387 55.448 18.9947 54.9147 16.392 53.848C13.7893 52.7813 11.6987 51.2027 10.12 49.112C8.584 47.0213 7.77333 44.504 7.688 41.56H19.336C19.5067 43.224 20.0827 44.504 21.064 45.4C22.0453 46.2533 23.3253 46.68 24.904 46.68C26.5253 46.68 27.8053 46.3173 28.744 45.592C29.6827 44.824 30.152 43.7787 30.152 42.456C30.152 41.3467 29.768 40.4293 29 39.704C28.2747 38.9787 27.3573 38.3813 26.248 37.912C25.1813 37.4427 23.6453 36.9093 21.64 36.312C18.7387 35.416 16.3707 34.52 14.536 33.624C12.7013 32.728 11.1227 31.4053 9.8 29.656C8.47733 27.9067 7.816 25.624 7.816 22.808C7.816 18.6267 9.33067 15.3627 12.36 13.016C15.3893 10.6267 19.336 9.432 24.2 9.432C29.1493 9.432 33.1387 10.6267 36.168 13.016C39.1973 15.3627 40.8187 18.648 41.032 22.872H29.192C29.1067 21.4213 28.5733 20.2907 27.592 19.48C26.6107 18.6267 25.352 18.2 23.816 18.2C22.4933 18.2 21.4267 18.5627 20.616 19.288C19.8053 19.9707 19.4 20.9733 19.4 22.296C19.4 23.7467 20.0827 24.8773 21.448 25.688C22.8133 26.4987 24.9467 27.3733 27.848 28.312C30.7493 29.2933 33.096 30.232 34.888 31.128C36.7227 32.024 38.3013 33.3253 39.624 35.032C40.9467 36.7387 41.608 38.936 41.608 41.624C41.608 44.184 40.9467 46.5093 39.624 48.6C38.344 50.6907 36.4667 52.3547 33.992 53.592C31.5173 54.8293 28.5947 55.448 25.224 55.448ZM64.599 55.512C61.1003 55.512 57.943 54.7653 55.127 53.272C52.3537 51.7787 50.1563 49.6453 48.535 46.872C46.9563 44.0987 46.167 40.856 46.167 37.144C46.167 33.4747 46.9777 30.2533 48.599 27.48C50.2203 24.664 52.439 22.5093 55.255 21.016C58.071 19.5227 61.2283 18.776 64.727 18.776C68.2257 18.776 71.383 19.5227 74.199 21.016C77.015 22.5093 79.2337 24.664 80.855 27.48C82.4763 30.2533 83.287 33.4747 83.287 37.144C83.287 40.8133 82.455 44.056 80.791 46.872C79.1697 49.6453 76.9297 51.7787 74.071 53.272C71.255 54.7653 68.0977 55.512 64.599 55.512ZM64.599 46.04C66.6897 46.04 68.4603 45.272 69.911 43.736C71.4043 42.2 72.151 40.0027 72.151 37.144C72.151 34.2853 71.4257 32.088 69.975 30.552C68.567 29.016 66.8177 28.248 64.727 28.248C62.5937 28.248 60.823 29.016 59.415 30.552C58.007 32.0453 57.303 34.2427 57.303 37.144C57.303 40.0027 57.9857 42.2 59.351 43.736C60.759 45.272 62.5083 46.04 64.599 46.04ZM100.037 7.64V55H89.093V7.64H100.037ZM143.232 19.288V55H132.288V50.136C131.179 51.7147 129.664 52.9947 127.744 53.976C125.867 54.9147 123.776 55.384 121.472 55.384C118.741 55.384 116.331 54.7867 114.24 53.592C112.149 52.3547 110.528 50.584 109.376 48.28C108.224 45.976 107.648 43.2667 107.648 40.152V19.288H118.528V38.68C118.528 41.0693 119.147 42.9253 120.384 44.248C121.621 45.5707 123.285 46.232 125.376 46.232C127.509 46.232 129.195 45.5707 130.432 44.248C131.669 42.9253 132.288 41.0693 132.288 38.68V19.288H143.232ZM170.997 45.72V55H165.429C161.461 55 158.368 54.04 156.149 52.12C153.93 50.1573 152.821 46.9787 152.821 42.584V28.376H148.469V19.288H152.821V10.584H163.765V19.288H170.933V28.376H163.765V42.712C163.765 43.7787 164.021 44.5467 164.533 45.016C165.045 45.4853 165.898 45.72 167.093 45.72H170.997ZM182.597 15.576C180.677 15.576 179.098 15.0213 177.861 13.912C176.666 12.76 176.069 11.352 176.069 9.688C176.069 7.98133 176.666 6.57333 177.861 5.464C179.098 4.312 180.677 3.736 182.597 3.736C184.474 3.736 186.01 4.312 187.205 5.464C188.442 6.57333 189.061 7.98133 189.061 9.688C189.061 11.352 188.442 12.76 187.205 13.912C186.01 15.0213 184.474 15.576 182.597 15.576ZM188.037 19.288V55H177.093V19.288H188.037ZM212.224 55.512C208.725 55.512 205.568 54.7653 202.752 53.272C199.979 51.7787 197.781 49.6453 196.16 46.872C194.581 44.0987 193.792 40.856 193.792 37.144C193.792 33.4747 194.603 30.2533 196.224 27.48C197.845 24.664 200.064 22.5093 202.88 21.016C205.696 19.5227 208.853 18.776 212.352 18.776C215.851 18.776 219.008 19.5227 221.824 21.016C224.64 22.5093 226.859 24.664 228.48 27.48C230.101 30.2533 230.912 33.4747 230.912 37.144C230.912 40.8133 230.08 44.056 228.416 46.872C226.795 49.6453 224.555 51.7787 221.696 53.272C218.88 54.7653 215.723 55.512 212.224 55.512ZM212.224 46.04C214.315 46.04 216.085 45.272 217.536 43.736C219.029 42.2 219.776 40.0027 219.776 37.144C219.776 34.2853 219.051 32.088 217.6 30.552C216.192 29.016 214.443 28.248 212.352 28.248C210.219 28.248 208.448 29.016 207.04 30.552C205.632 32.0453 204.928 34.2427 204.928 37.144C204.928 40.0027 205.611 42.2 206.976 43.736C208.384 45.272 210.133 46.04 212.224 46.04ZM258.478 18.904C262.659 18.904 265.987 20.2693 268.462 23C270.979 25.688 272.238 29.4 272.238 34.136V55H261.358V35.608C261.358 33.2187 260.739 31.3627 259.502 30.04C258.265 28.7173 256.601 28.056 254.51 28.056C252.419 28.056 250.755 28.7173 249.518 30.04C248.281 31.3627 247.662 33.2187 247.662 35.608V55H236.718V19.288H247.662V24.024C248.771 22.4453 250.265 21.208 252.142 20.312C254.019 19.3733 256.131 18.904 258.478 18.904ZM294.371 55.512C291.256 55.512 288.483 54.9787 286.051 53.912C283.619 52.8453 281.699 51.3947 280.291 49.56C278.883 47.6827 278.094 45.592 277.923 43.288H288.739C288.867 44.5253 289.443 45.528 290.467 46.296C291.491 47.064 292.75 47.448 294.243 47.448C295.608 47.448 296.654 47.192 297.379 46.68C298.147 46.1253 298.531 45.4213 298.531 44.568C298.531 43.544 297.998 42.7973 296.931 42.328C295.864 41.816 294.136 41.2613 291.747 40.664C289.187 40.0667 287.054 39.448 285.347 38.808C283.64 38.1253 282.168 37.08 280.931 35.672C279.694 34.2213 279.075 32.28 279.075 29.848C279.075 27.8 279.63 25.944 280.739 24.28C281.891 22.5733 283.555 21.2293 285.731 20.248C287.95 19.2667 290.574 18.776 293.603 18.776C298.083 18.776 301.603 19.8853 304.163 22.104C306.766 24.3227 308.259 27.2667 308.643 30.936H298.531C298.36 29.6987 297.806 28.7173 296.867 27.992C295.971 27.2667 294.776 26.904 293.283 26.904C292.003 26.904 291.022 27.16 290.339 27.672C289.656 28.1413 289.315 28.8027 289.315 29.656C289.315 30.68 289.848 31.448 290.915 31.96C292.024 32.472 293.731 32.984 296.035 33.496C298.68 34.1787 300.835 34.8613 302.499 35.544C304.163 36.184 305.614 37.2507 306.851 38.744C308.131 40.1947 308.792 42.1573 308.835 44.632C308.835 46.7227 308.238 48.6 307.043 50.264C305.891 51.8853 304.206 53.1653 301.987 54.104C299.811 55.0427 297.272 55.512 294.371 55.512Z" fill="#E2E8F0"/>
<path d="M16.392 53.848L14.8751 57.5492L16.392 53.848ZM10.12 49.112L6.89647 51.4803L6.91202 51.5015L6.92783 51.5224L10.12 49.112ZM7.688 41.56V37.56H3.57038L3.68968 41.6759L7.688 41.56ZM19.336 41.56L23.3151 41.1519L22.9467 37.56H19.336V41.56ZM21.064 45.4L18.3669 48.3539L18.4027 48.3866L18.4393 48.4184L21.064 45.4ZM28.744 45.592L31.1898 48.7571L31.2339 48.7231L31.277 48.6878L28.744 45.592ZM29 39.704L26.1716 42.5324L26.212 42.5728L26.2535 42.6121L29 39.704ZM26.248 37.912L24.637 41.5733L24.6632 41.5848L24.6894 41.5959L26.248 37.912ZM21.64 36.312L20.4597 40.1339L20.4789 40.1398L20.4981 40.1455L21.64 36.312ZM14.536 33.624L12.7807 37.2183L14.536 33.624ZM9.8 29.656L12.9906 27.2436H12.9906L9.8 29.656ZM12.36 13.016L14.8096 16.1782L14.8234 16.1675L14.8371 16.1567L12.36 13.016ZM36.168 13.016L33.6909 16.1567L33.7046 16.1675L33.7184 16.1782L36.168 13.016ZM41.032 22.872V26.872H45.2391L45.0269 22.6702L41.032 22.872ZM29.192 22.872L25.1989 23.1069L25.4204 26.872H29.192V22.872ZM27.592 19.48L24.9673 22.4984L25.0055 22.5316L25.0445 22.5638L27.592 19.48ZM20.616 19.288L23.1925 22.3476L23.2385 22.309L23.2832 22.269L20.616 19.288ZM21.448 25.688L23.4902 22.2486H23.4902L21.448 25.688ZM27.848 28.312L29.1296 24.5229L29.1045 24.5144L29.0793 24.5062L27.848 28.312ZM34.888 31.128L33.0991 34.7057L33.1159 34.7141L33.1327 34.7223L34.888 31.128ZM39.624 35.032L36.4623 37.4823L36.4623 37.4823L39.624 35.032ZM39.624 48.6L36.2437 46.4614L36.228 46.4863L36.2126 46.5114L39.624 48.6ZM33.992 53.592L32.2031 50.0143L33.992 53.592ZM25.224 51.448C22.3727 51.448 19.9564 50.9859 17.9089 50.1468L14.8751 57.5492C18.033 58.8434 21.5046 59.448 25.224 59.448V51.448ZM17.9089 50.1468C15.9196 49.3315 14.4265 48.1773 13.3122 46.7016L6.92783 51.5224C8.97088 54.2281 11.659 56.2312 14.8751 57.5492L17.9089 50.1468ZM13.3435 46.7437C12.3518 45.3939 11.7514 43.6899 11.6863 41.4441L3.68968 41.6759C3.79525 45.3181 4.81619 48.6488 6.89647 51.4803L13.3435 46.7437ZM7.688 45.56H19.336V37.56H7.688V45.56ZM15.3569 41.9681C15.6009 44.3473 16.4867 46.6372 18.3669 48.3539L23.7611 42.4461C23.6787 42.3708 23.4124 42.1007 23.3151 41.1519L15.3569 41.9681ZM18.4393 48.4184C20.2962 50.0331 22.5763 50.68 24.904 50.68V42.68C24.0744 42.68 23.7944 42.4735 23.6887 42.3816L18.4393 48.4184ZM24.904 50.68C27.0898 50.68 29.3334 50.1916 31.1898 48.7571L26.2982 42.4269C26.2773 42.443 25.9609 42.68 24.904 42.68V50.68ZM31.277 48.6878C33.2359 47.0851 34.152 44.8546 34.152 42.456H26.152C26.152 42.5502 26.1437 42.6015 26.1403 42.6183C26.1373 42.6337 26.1381 42.6222 26.1509 42.5936C26.157 42.5802 26.1646 42.5654 26.1737 42.5503C26.1828 42.5351 26.192 42.5218 26.2006 42.5108C26.2187 42.4875 26.2265 42.4835 26.211 42.4962L31.277 48.6878ZM34.152 42.456C34.152 40.3081 33.3585 38.3184 31.7465 36.7959L26.2535 42.6121C26.2595 42.6177 26.2481 42.6078 26.2291 42.5807C26.2097 42.553 26.1901 42.5184 26.1742 42.4805C26.1585 42.443 26.152 42.4154 26.1499 42.4046C26.1481 42.3948 26.152 42.4099 26.152 42.456H34.152ZM31.8284 36.8756C30.6812 35.7283 29.309 34.8638 27.8066 34.2281L24.6894 41.5959C25.4057 41.8989 25.8681 42.229 26.1716 42.5324L31.8284 36.8756ZM27.859 34.2507C26.565 33.6814 24.8429 33.0924 22.7819 32.4785L20.4981 40.1455C22.4478 40.7263 23.7977 41.2039 24.637 41.5733L27.859 34.2507ZM22.8203 32.4901C20.031 31.6287 17.8746 30.803 16.2913 30.0297L12.7807 37.2183C14.8667 38.237 17.4463 39.2033 20.4597 40.1339L22.8203 32.4901ZM16.2913 30.0297C15.0626 29.4296 13.9631 28.5297 12.9906 27.2436L6.60936 32.0684C8.28225 34.281 10.3401 36.0263 12.7807 37.2183L16.2913 30.0297ZM12.9906 27.2436C12.3258 26.3643 11.816 25.0023 11.816 22.808H3.816C3.816 26.2457 4.62887 29.4491 6.60936 32.0684L12.9906 27.2436ZM11.816 22.808C11.816 19.734 12.8564 17.6912 14.8096 16.1782L9.91041 9.8538C5.80491 13.0341 3.816 17.5193 3.816 22.808H11.816ZM14.8371 16.1567C16.9938 14.4556 19.9962 13.432 24.2 13.432V5.432C18.6758 5.432 13.7849 6.7977 9.88286 9.87534L14.8371 16.1567ZM24.2 13.432C28.5079 13.432 31.5458 14.4648 33.6909 16.1567L38.6451 9.87534C34.7316 6.78857 29.7908 5.432 24.2 5.432V13.432ZM33.7184 16.1782C35.7232 17.7312 36.8757 19.8787 37.0371 23.0738L45.0269 22.6702C44.7616 17.4173 42.6715 12.9941 38.6176 9.8538L33.7184 16.1782ZM41.032 18.872H29.192V26.872H41.032V18.872ZM33.1851 22.6371C33.0447 20.25 32.1024 18.0176 30.1395 16.3962L25.0445 22.5638C25.0899 22.6014 25.0993 22.6193 25.1103 22.6425C25.1266 22.6771 25.1814 22.8099 25.1989 23.1069L33.1851 22.6371ZM30.2167 16.4616C28.3796 14.8641 26.1326 14.2 23.816 14.2V22.2C24.5714 22.2 24.8417 22.3892 24.9673 22.4984L30.2167 16.4616ZM23.816 14.2C21.7319 14.2 19.6435 14.7907 17.9488 16.307L23.2832 22.269C23.2836 22.2686 23.2829 22.2693 23.2812 22.2705C23.2795 22.2717 23.2781 22.2726 23.2777 22.2728C23.2758 22.2739 23.2849 22.2682 23.3116 22.2591C23.3653 22.2408 23.5182 22.2 23.816 22.2V14.2ZM18.0395 16.2284C16.1083 17.8546 15.4 20.1116 15.4 22.296H23.4C23.4 22.0372 23.4401 21.9828 23.4124 22.0512C23.3982 22.0864 23.3715 22.14 23.3278 22.2005C23.2839 22.2613 23.2359 22.3111 23.1925 22.3476L18.0395 16.2284ZM15.4 22.296C15.4 25.3124 16.9654 27.6784 19.4058 29.1274L23.4902 22.2486C23.3732 22.1792 23.319 22.1314 23.3038 22.117C23.2907 22.1046 23.3091 22.1195 23.3363 22.1645C23.3491 22.1858 23.3614 22.2097 23.3721 22.235C23.3828 22.2602 23.3902 22.283 23.3951 22.3013C23.4052 22.3398 23.4 22.3431 23.4 22.296H15.4ZM19.4058 29.1274C21.164 30.1714 23.6407 31.1549 26.6167 32.1178L29.0793 24.5062C26.2527 23.5917 24.4626 22.826 23.4902 22.2486L19.4058 29.1274ZM26.5664 32.1011C29.3745 33.0509 31.5328 33.9225 33.0991 34.7057L36.6769 27.5503C34.6592 26.5415 32.1242 25.5357 29.1296 24.5229L26.5664 32.1011ZM33.1327 34.7223C34.3856 35.3342 35.4926 36.231 36.4623 37.4823L42.7857 32.5817C41.1101 30.4197 39.0597 28.7138 36.6433 27.5337L33.1327 34.7223ZM36.4623 37.4823C37.1198 38.3306 37.608 39.6014 37.608 41.624H45.608C45.608 38.2706 44.7735 35.1467 42.7857 32.5817L36.4623 37.4823ZM37.608 41.624C37.608 43.4546 37.147 45.0337 36.2437 46.4614L43.0043 50.7386C44.7464 47.985 45.608 44.9134 45.608 41.624H37.608ZM36.2126 46.5114C35.3721 47.8842 34.0967 49.0675 32.2031 50.0143L35.7809 57.1697C38.8366 55.6418 41.3159 53.4971 43.0354 50.6886L36.2126 46.5114ZM32.2031 50.0143C30.3921 50.9198 28.1072 51.448 25.224 51.448V59.448C29.0821 59.448 32.6425 58.7389 35.7809 57.1697L32.2031 50.0143ZM55.127 53.272L53.2306 56.7939L53.2418 56.7999L53.253 56.8058L55.127 53.272ZM48.535 46.872L45.0587 48.8508L45.0702 48.8709L45.0818 48.8908L48.535 46.872ZM48.599 27.48L52.0522 29.4988L52.0589 29.4873L52.0655 29.4759L48.599 27.48ZM55.255 21.016L57.129 24.5498H57.129L55.255 21.016ZM74.199 21.016L72.325 24.5498L74.199 21.016ZM80.855 27.48L77.3885 29.4759L77.3951 29.4873L77.4018 29.4988L80.855 27.48ZM80.791 46.872L77.3473 44.8371L77.3425 44.8451L77.3378 44.8532L80.791 46.872ZM74.071 53.272L72.2189 49.7266L72.2079 49.7323L72.197 49.7382L74.071 53.272ZM69.911 43.736L67.043 40.9477L67.0228 40.9684L67.0029 40.9895L69.911 43.736ZM69.975 30.552L67.0264 33.2549L67.0465 33.2768L67.0669 33.2985L69.975 30.552ZM59.415 30.552L62.3254 33.296L62.3446 33.2756L62.3636 33.2549L59.415 30.552ZM59.351 43.736L56.3614 46.3935L56.3817 46.4163L56.4024 46.4389L59.351 43.736ZM64.599 51.512C61.6886 51.512 59.1849 50.8963 57.001 49.7382L53.253 56.8058C56.7011 58.6344 60.5121 59.512 64.599 59.512V51.512ZM57.0234 49.7501C54.9107 48.6125 53.2463 47.0053 51.9882 44.8532L45.0818 48.8908C47.0663 52.2854 49.7967 54.9448 53.2306 56.7939L57.0234 49.7501ZM52.0113 44.8932C50.8283 42.815 50.167 40.2764 50.167 37.144H42.167C42.167 41.4356 43.0844 45.3823 45.0587 48.8508L52.0113 44.8932ZM50.167 37.144C50.167 34.0815 50.8374 31.5767 52.0522 29.4988L45.1458 25.4612C43.1179 28.93 42.167 32.8678 42.167 37.144H50.167ZM52.0655 29.4759C53.319 27.2987 54.9915 25.6834 57.129 24.5498L53.381 17.4822C49.8865 19.3353 47.1217 22.0293 45.1325 25.4841L52.0655 29.4759ZM57.129 24.5498C59.3129 23.3917 61.8166 22.776 64.727 22.776V14.776C60.6401 14.776 56.8291 15.6536 53.381 17.4822L57.129 24.5498ZM64.727 22.776C67.6374 22.776 70.1411 23.3917 72.325 24.5498L76.073 17.4822C72.6249 15.6536 68.8139 14.776 64.727 14.776V22.776ZM72.325 24.5498C74.4625 25.6834 76.135 27.2987 77.3885 29.4759L84.3215 25.4841C82.3323 22.0293 79.5675 19.3353 76.073 17.4822L72.325 24.5498ZM77.4018 29.4988C78.6166 31.5767 79.287 34.0815 79.287 37.144H87.287C87.287 32.8678 86.3361 28.93 84.3082 25.4612L77.4018 29.4988ZM79.287 37.144C79.287 40.1867 78.6042 42.7099 77.3473 44.8371L84.2347 48.9069C86.3058 45.4021 87.287 41.4399 87.287 37.144H79.287ZM77.3378 44.8532C76.0976 46.9746 74.4138 48.58 72.2189 49.7266L75.9231 56.8174C79.4455 54.9773 82.2417 52.3161 84.2442 48.8908L77.3378 44.8532ZM72.197 49.7382C70.0131 50.8963 67.5094 51.512 64.599 51.512V59.512C68.6859 59.512 72.4969 58.6344 75.945 56.8058L72.197 49.7382ZM64.599 50.04C67.8033 50.04 70.6218 48.809 72.8191 46.4825L67.0029 40.9895C66.2989 41.735 65.576 42.04 64.599 42.04V50.04ZM72.779 46.5243C75.2145 44.0192 76.151 40.6859 76.151 37.144H68.151C68.151 39.3194 67.5942 40.3808 67.043 40.9477L72.779 46.5243ZM76.151 37.144C76.151 33.6314 75.2521 30.3139 72.8831 27.8055L67.0669 33.2985C67.5993 33.8621 68.151 34.9393 68.151 37.144H76.151ZM72.9236 27.8491C70.7551 25.4834 67.9346 24.248 64.727 24.248V32.248C65.7007 32.248 66.3789 32.5486 67.0264 33.2549L72.9236 27.8491ZM64.727 24.248C61.5028 24.248 58.6523 25.4645 56.4664 27.8491L62.3636 33.2549C62.9937 32.5675 63.6845 32.248 64.727 32.248V24.248ZM56.5046 27.8079C54.1524 30.3027 53.303 33.6454 53.303 37.144H61.303C61.303 34.8399 61.8616 33.7879 62.3254 33.296L56.5046 27.8079ZM53.303 37.144C53.303 40.5993 54.1292 43.8822 56.3614 46.3935L62.3406 41.0785C61.8422 40.5178 61.303 39.406 61.303 37.144H53.303ZM56.4024 46.4389C58.5709 48.8046 61.3914 50.04 64.599 50.04V42.04C63.6253 42.04 62.9471 41.7394 62.2996 41.0331L56.4024 46.4389ZM100.037 7.64H104.037V3.64H100.037V7.64ZM100.037 55V59H104.037V55H100.037ZM89.093 55H85.093V59H89.093V55ZM89.093 7.64V3.64H85.093V7.64H89.093ZM96.037 7.64V55H104.037V7.64H96.037ZM100.037 51H89.093V59H100.037V51ZM93.093 55V7.64H85.093V55H93.093ZM89.093 11.64H100.037V3.64H89.093V11.64ZM143.232 19.288H147.232V15.288H143.232V19.288ZM143.232 55V59H147.232V55H143.232ZM132.288 55H128.288V59H132.288V55ZM132.288 50.136H136.288V37.4865L129.015 47.8362L132.288 50.136ZM127.744 53.976L129.533 57.5537L129.549 57.5458L129.564 57.5377L127.744 53.976ZM114.24 53.592L112.203 57.0343L112.229 57.0498L112.255 57.065L114.24 53.592ZM109.376 48.28L105.798 50.0689L109.376 48.28ZM107.648 19.288V15.288H103.648V19.288H107.648ZM118.528 19.288H122.528V15.288H118.528V19.288ZM120.384 44.248L117.463 46.9806L120.384 44.248ZM132.288 19.288V15.288H128.288V19.288H132.288ZM139.232 19.288V55H147.232V19.288H139.232ZM143.232 51H132.288V59H143.232V51ZM136.288 55V50.136H128.288V55H136.288ZM129.015 47.8362C128.322 48.8222 127.333 49.6938 125.924 50.4143L129.564 57.5377C131.995 56.2955 134.035 54.6071 135.561 52.4358L129.015 47.8362ZM125.955 50.3983C124.686 51.0329 123.217 51.384 121.472 51.384V59.384C124.335 59.384 127.047 58.7964 129.533 57.5537L125.955 50.3983ZM121.472 51.384C119.343 51.384 117.633 50.9241 116.225 50.119L112.255 57.065C115.028 58.6492 118.14 59.384 121.472 59.384V51.384ZM116.277 50.1497C114.889 49.3281 113.784 48.1509 112.954 46.4911L105.798 50.0689C107.272 53.0171 109.41 55.3813 112.203 57.0343L116.277 50.1497ZM112.954 46.4911C112.132 44.8469 111.648 42.7739 111.648 40.152H103.648C103.648 43.7594 104.316 47.1051 105.798 50.0689L112.954 46.4911ZM111.648 40.152V19.288H103.648V40.152H111.648ZM107.648 23.288H118.528V15.288H107.648V23.288ZM114.528 19.288V38.68H122.528V19.288H114.528ZM114.528 38.68C114.528 41.7516 115.334 44.7053 117.463 46.9806L123.305 41.5154C122.959 41.1453 122.528 40.3871 122.528 38.68H114.528ZM117.463 46.9806C119.576 49.2389 122.365 50.232 125.376 50.232V42.232C124.205 42.232 123.667 41.9024 123.305 41.5154L117.463 46.9806ZM125.376 50.232C128.402 50.232 131.225 49.256 133.353 46.9806L127.511 41.5154C127.165 41.8853 126.616 42.232 125.376 42.232V50.232ZM133.353 46.9806C135.482 44.7053 136.288 41.7516 136.288 38.68H128.288C128.288 40.3871 127.857 41.1453 127.511 41.5154L133.353 46.9806ZM136.288 38.68V19.288H128.288V38.68H136.288ZM132.288 23.288H143.232V15.288H132.288V23.288ZM170.997 45.72H174.997V41.72H170.997V45.72ZM170.997 55V59H174.997V55H170.997ZM156.149 52.12L153.499 55.116L153.515 55.1304L153.531 55.1447L156.149 52.12ZM152.821 28.376H156.821V24.376H152.821V28.376ZM148.469 28.376H144.469V32.376H148.469V28.376ZM148.469 19.288V15.288H144.469V19.288H148.469ZM152.821 19.288V23.288H156.821V19.288H152.821ZM152.821 10.584V6.584H148.821V10.584H152.821ZM163.765 10.584H167.765V6.584H163.765V10.584ZM163.765 19.288H159.765V23.288H163.765V19.288ZM170.933 19.288H174.933V15.288H170.933V19.288ZM170.933 28.376V32.376H174.933V28.376H170.933ZM163.765 28.376V24.376H159.765V28.376H163.765ZM164.533 45.016L161.83 47.9646H161.83L164.533 45.016ZM166.997 45.72V55H174.997V45.72H166.997ZM170.997 51H165.429V59H170.997V51ZM165.429 51C162.081 51 160.036 50.1942 158.767 49.0953L153.531 55.1447C156.699 57.8858 160.841 59 165.429 59V51ZM158.799 49.124C157.785 48.2264 156.821 46.3936 156.821 42.584H148.821C148.821 47.5637 150.076 52.0883 153.499 55.116L158.799 49.124ZM156.821 42.584V28.376H148.821V42.584H156.821ZM152.821 24.376H148.469V32.376H152.821V24.376ZM152.469 28.376V19.288H144.469V28.376H152.469ZM148.469 23.288H152.821V15.288H148.469V23.288ZM156.821 19.288V10.584H148.821V19.288H156.821ZM152.821 14.584H163.765V6.584H152.821V14.584ZM159.765 10.584V19.288H167.765V10.584H159.765ZM163.765 23.288H170.933V15.288H163.765V23.288ZM166.933 19.288V28.376H174.933V19.288H166.933ZM170.933 24.376H163.765V32.376H170.933V24.376ZM159.765 28.376V42.712H167.765V28.376H159.765ZM159.765 42.712C159.765 44.3039 160.136 46.4117 161.83 47.9646L167.236 42.0674C167.558 42.363 167.701 42.6697 167.752 42.8231C167.795 42.9531 167.765 42.9438 167.765 42.712H159.765ZM161.83 47.9646C163.455 49.454 165.561 49.72 167.093 49.72V41.72C166.923 41.72 166.8 41.7116 166.716 41.702C166.632 41.6924 166.603 41.6833 166.618 41.6872C166.64 41.6932 166.914 41.772 167.236 42.0674L161.83 47.9646ZM167.093 49.72H170.997V41.72H167.093V49.72ZM177.861 13.912L175.084 16.7914L175.137 16.8418L175.191 16.8903L177.861 13.912ZM177.861 5.464L180.583 8.39517L180.587 8.39157L177.861 5.464ZM187.205 5.464L184.428 8.34337L184.481 8.39379L184.535 8.44227L187.205 5.464ZM187.205 13.912L189.927 16.8432L189.931 16.8396L187.205 13.912ZM188.037 19.288H192.037V15.288H188.037V19.288ZM188.037 55V59H192.037V55H188.037ZM177.093 55H173.093V59H177.093V55ZM177.093 19.288V15.288H173.093V19.288H177.093ZM182.597 11.576C181.499 11.576 180.922 11.2838 180.531 10.9337L175.191 16.8903C177.275 18.7588 179.855 19.576 182.597 19.576V11.576ZM180.638 11.0326C180.227 10.6368 180.069 10.2692 180.069 9.688H172.069C172.069 12.4348 173.106 14.8832 175.084 16.7914L180.638 11.0326ZM180.069 9.688C180.069 9.03487 180.245 8.70859 180.583 8.39517L175.139 2.53282C173.087 4.43807 172.069 6.92779 172.069 9.688H180.069ZM180.587 8.39157C180.982 8.02331 181.541 7.736 182.597 7.736V-0.264004C179.813 -0.264004 177.214 0.600685 175.135 2.53642L180.587 8.39157ZM182.597 7.736C183.586 7.736 184.079 8.00638 184.428 8.34337L189.982 2.58462C187.942 0.617611 185.363 -0.264004 182.597 -0.264004V7.736ZM184.535 8.44227C184.9 8.76984 185.061 9.08298 185.061 9.688H193.061C193.061 6.87969 191.984 4.37682 189.875 2.48572L184.535 8.44227ZM185.061 9.688C185.061 10.2216 184.919 10.5754 184.479 10.9844L189.931 16.8396C191.966 14.9446 193.061 12.4824 193.061 9.688H185.061ZM184.483 10.9808C184.14 11.2991 183.629 11.576 182.597 11.576V19.576C185.32 19.576 187.88 18.7435 189.927 16.8432L184.483 10.9808ZM184.037 19.288V55H192.037V19.288H184.037ZM188.037 51H177.093V59H188.037V51ZM181.093 55V19.288H173.093V55H181.093ZM177.093 23.288H188.037V15.288H177.093V23.288ZM202.752 53.272L200.856 56.7939L200.867 56.7999L200.878 56.8058L202.752 53.272ZM196.16 46.872L192.684 48.8508L192.695 48.8709L192.707 48.8908L196.16 46.872ZM196.224 27.48L199.677 29.4988L199.684 29.4873L199.69 29.4759L196.224 27.48ZM202.88 21.016L204.754 24.5498L202.88 21.016ZM221.824 21.016L219.95 24.5498L221.824 21.016ZM228.48 27.48L225.014 29.4759L225.02 29.4873L225.027 29.4988L228.48 27.48ZM228.416 46.872L224.972 44.8371L224.968 44.8451L224.963 44.8532L228.416 46.872ZM221.696 53.272L219.844 49.7266L219.833 49.7323L219.822 49.7382L221.696 53.272ZM217.536 43.736L214.668 40.9477L214.648 40.9684L214.628 40.9895L217.536 43.736ZM217.6 30.552L214.651 33.2549L214.672 33.2768L214.692 33.2985L217.6 30.552ZM207.04 30.552L209.95 33.296L209.97 33.2756L209.989 33.2549L207.04 30.552ZM206.976 43.736L203.986 46.3935L204.007 46.4163L204.027 46.4389L206.976 43.736ZM212.224 51.512C209.314 51.512 206.81 50.8963 204.626 49.7382L200.878 56.8058C204.326 58.6344 208.137 59.512 212.224 59.512V51.512ZM204.648 49.7501C202.536 48.6125 200.871 47.0053 199.613 44.8532L192.707 48.8908C194.691 52.2854 197.422 54.9448 200.856 56.7939L204.648 49.7501ZM199.636 44.8932C198.453 42.815 197.792 40.2764 197.792 37.144H189.792C189.792 41.4356 190.709 45.3823 192.684 48.8508L199.636 44.8932ZM197.792 37.144C197.792 34.0815 198.462 31.5767 199.677 29.4988L192.771 25.4612C190.743 28.93 189.792 32.8678 189.792 37.144H197.792ZM199.69 29.4759C200.944 27.2987 202.616 25.6834 204.754 24.5498L201.006 17.4822C197.512 19.3353 194.747 22.0293 192.758 25.4841L199.69 29.4759ZM204.754 24.5498C206.938 23.3917 209.442 22.776 212.352 22.776V14.776C208.265 14.776 204.454 15.6536 201.006 17.4822L204.754 24.5498ZM212.352 22.776C215.262 22.776 217.766 23.3917 219.95 24.5498L223.698 17.4822C220.25 15.6536 216.439 14.776 212.352 14.776V22.776ZM219.95 24.5498C222.088 25.6834 223.76 27.2987 225.014 29.4759L231.946 25.4841C229.957 22.0293 227.192 19.3353 223.698 17.4822L219.95 24.5498ZM225.027 29.4988C226.242 31.5767 226.912 34.0815 226.912 37.144H234.912C234.912 32.8678 233.961 28.93 231.933 25.4612L225.027 29.4988ZM226.912 37.144C226.912 40.1867 226.229 42.7099 224.972 44.8371L231.86 48.9069C233.931 45.4021 234.912 41.4399 234.912 37.144H226.912ZM224.963 44.8532C223.723 46.9746 222.039 48.58 219.844 49.7266L223.548 56.8174C227.071 54.9773 229.867 52.3161 231.869 48.8908L224.963 44.8532ZM219.822 49.7382C217.638 50.8963 215.134 51.512 212.224 51.512V59.512C216.311 59.512 220.122 58.6344 223.57 56.8058L219.822 49.7382ZM212.224 50.04C215.428 50.04 218.247 48.809 220.444 46.4825L214.628 40.9895C213.924 41.735 213.201 42.04 212.224 42.04V50.04ZM220.404 46.5243C222.84 44.0192 223.776 40.6859 223.776 37.144H215.776C215.776 39.3194 215.219 40.3808 214.668 40.9477L220.404 46.5243ZM223.776 37.144C223.776 33.6314 222.877 30.3139 220.508 27.8055L214.692 33.2985C215.224 33.8621 215.776 34.9393 215.776 37.144H223.776ZM220.549 27.8491C218.38 25.4834 215.56 24.248 212.352 24.248V32.248C213.326 32.248 214.004 32.5486 214.651 33.2549L220.549 27.8491ZM212.352 24.248C209.128 24.248 206.277 25.4645 204.091 27.8491L209.989 33.2549C210.619 32.5675 211.31 32.248 212.352 32.248V24.248ZM204.13 27.8079C201.777 30.3027 200.928 33.6454 200.928 37.144H208.928C208.928 34.8399 209.487 33.7879 209.95 33.296L204.13 27.8079ZM200.928 37.144C200.928 40.5993 201.754 43.8822 203.986 46.3935L209.966 41.0785C209.467 40.5178 208.928 39.406 208.928 37.144H200.928ZM204.027 46.4389C206.196 48.8046 209.016 50.04 212.224 50.04V42.04C211.25 42.04 210.572 41.7394 209.925 41.0331L204.027 46.4389ZM268.462 23L265.498 25.6861L265.52 25.7103L265.542 25.7342L268.462 23ZM272.238 55V59H276.238V55H272.238ZM261.358 55H257.358V59H261.358V55ZM259.502 30.04L256.581 32.7726V32.7726L259.502 30.04ZM249.518 30.04L252.439 32.7726V32.7726L249.518 30.04ZM247.662 55V59H251.662V55H247.662ZM236.718 55H232.718V59H236.718V55ZM236.718 19.288V15.288H232.718V19.288H236.718ZM247.662 19.288H251.662V15.288H247.662V19.288ZM247.662 24.024H243.662V36.6735L250.935 26.3238L247.662 24.024ZM252.142 20.312L253.865 23.9219L253.898 23.9061L253.931 23.8897L252.142 20.312ZM258.478 22.904C261.698 22.904 263.888 23.9091 265.498 25.6861L271.426 20.3139C268.087 16.6296 263.62 14.904 258.478 14.904V22.904ZM265.542 25.7342C267.184 27.4872 268.238 30.1146 268.238 34.136H276.238C276.238 28.6854 274.775 23.8888 271.382 20.2658L265.542 25.7342ZM268.238 34.136V55H276.238V34.136H268.238ZM272.238 51H261.358V59H272.238V51ZM265.358 55V35.608H257.358V55H265.358ZM265.358 35.608C265.358 32.5364 264.552 29.5827 262.423 27.3074L256.581 32.7726C256.927 33.1427 257.358 33.9009 257.358 35.608H265.358ZM262.423 27.3074C260.31 25.049 257.521 24.056 254.51 24.056V32.056C255.681 32.056 256.219 32.3856 256.581 32.7726L262.423 27.3074ZM254.51 24.056C251.499 24.056 248.71 25.049 246.597 27.3074L252.439 32.7726C252.801 32.3856 253.339 32.056 254.51 32.056V24.056ZM246.597 27.3074C244.468 29.5827 243.662 32.5364 243.662 35.608H251.662C251.662 33.9009 252.093 33.1427 252.439 32.7726L246.597 27.3074ZM243.662 35.608V55H251.662V35.608H243.662ZM247.662 51H236.718V59H247.662V51ZM240.718 55V19.288H232.718V55H240.718ZM236.718 23.288H247.662V15.288H236.718V23.288ZM243.662 19.288V24.024H251.662V19.288H243.662ZM250.935 26.3238C251.618 25.3514 252.558 24.5456 253.865 23.9219L250.419 16.7021C247.971 17.8704 245.925 19.5392 244.389 21.7242L250.935 26.3238ZM253.931 23.8897C255.19 23.2601 256.678 22.904 258.478 22.904V14.904C255.584 14.904 252.849 15.4866 250.353 16.7343L253.931 23.8897ZM286.051 53.912L287.658 50.2488L286.051 53.912ZM280.291 49.56L277.091 51.96L277.104 51.9777L277.118 51.9953L280.291 49.56ZM277.923 43.288V39.288H273.616L273.934 43.5835L277.923 43.288ZM288.739 43.288L292.718 42.8764L292.347 39.288H288.739V43.288ZM290.467 46.296L292.867 43.096L290.467 46.296ZM297.379 46.68L299.686 49.9479L299.703 49.9354L299.721 49.9227L297.379 46.68ZM296.931 42.328L295.2 45.9341L295.26 45.9627L295.32 45.9893L296.931 42.328ZM291.747 40.664L292.717 36.7834L292.687 36.7758L292.656 36.7686L291.747 40.664ZM285.347 38.808L283.861 42.5219L283.902 42.5381L283.943 42.5533L285.347 38.808ZM280.931 35.672L277.888 38.2678L277.907 38.2903L277.926 38.3125L280.931 35.672ZM280.739 24.28L277.424 22.0421L277.417 22.0516L277.411 22.0612L280.739 24.28ZM285.731 20.248L284.113 16.5899L284.1 16.5957L284.087 16.6017L285.731 20.248ZM304.163 22.104L301.543 25.1268L301.556 25.1375L301.568 25.1481L304.163 22.104ZM308.643 30.936V34.936H313.083L312.621 30.5197L308.643 30.936ZM298.531 30.936L294.569 31.4825L295.045 34.936H298.531V30.936ZM296.867 27.992L294.35 31.101L294.385 31.1295L294.421 31.1571L296.867 27.992ZM290.339 27.672L292.605 30.9682L292.673 30.9215L292.739 30.872L290.339 27.672ZM290.915 31.96L289.184 35.5661L289.211 35.5792L289.239 35.5918L290.915 31.96ZM296.035 33.496L297.035 29.6229L296.969 29.606L296.903 29.5912L296.035 33.496ZM302.499 35.544L300.981 39.2447L301.022 39.2615L301.063 39.2774L302.499 35.544ZM306.851 38.744L303.771 41.2961L303.811 41.3439L303.852 41.3905L306.851 38.744ZM308.835 44.632H312.835V44.5975L312.834 44.563L308.835 44.632ZM307.043 50.264L303.794 47.9312L303.788 47.9392L303.782 47.9472L307.043 50.264ZM301.987 54.104L300.428 50.4201L300.416 50.4256L300.403 50.4312L301.987 54.104ZM294.371 51.512C291.715 51.512 289.503 51.0583 287.658 50.2488L284.444 57.5752C287.463 58.899 290.798 59.512 294.371 59.512V51.512ZM287.658 50.2488C285.75 49.4124 284.404 48.3499 283.464 47.1247L277.118 51.9953C278.994 54.4395 281.488 56.2783 284.444 57.5752L287.658 50.2488ZM283.491 47.16C282.534 45.8841 282.025 44.5214 281.912 42.9925L273.934 43.5835C274.162 46.6626 275.232 49.4812 277.091 51.96L283.491 47.16ZM277.923 47.288H288.739V39.288H277.923V47.288ZM284.76 43.6996C285.007 46.0817 286.18 48.0811 288.067 49.496L292.867 43.096C292.802 43.047 292.767 43.0118 292.751 42.9942C292.736 42.9774 292.733 42.9715 292.735 42.9755C292.738 42.9797 292.738 42.9807 292.735 42.9727C292.732 42.9639 292.724 42.9342 292.718 42.8764L284.76 43.6996ZM288.067 49.496C289.894 50.8664 292.034 51.448 294.243 51.448V43.448C293.466 43.448 293.088 43.2616 292.867 43.096L288.067 49.496ZM294.243 51.448C296.019 51.448 298.011 51.1299 299.686 49.9479L295.072 43.4121C295.195 43.3252 295.236 43.3373 295.1 43.3708C294.958 43.4054 294.686 43.448 294.243 43.448V51.448ZM299.721 49.9227C301.397 48.7121 302.531 46.8614 302.531 44.568H294.531C294.531 44.3697 294.582 44.0938 294.731 43.8206C294.873 43.5617 295.024 43.4467 295.037 43.4373L299.721 49.9227ZM302.531 44.568C302.531 43.3234 302.193 42.0446 301.386 40.9151C300.603 39.8184 299.558 39.1139 298.542 38.6667L295.32 45.9893C295.37 46.0114 295.126 45.9149 294.876 45.5649C294.603 45.182 294.531 44.7886 294.531 44.568H302.531ZM298.662 38.7219C297.21 38.0248 295.151 37.3918 292.717 36.7834L290.777 44.5446C293.122 45.1308 294.519 45.6072 295.2 45.9341L298.662 38.7219ZM292.656 36.7686C290.198 36.195 288.243 35.622 286.751 35.0627L283.943 42.5533C285.864 43.274 288.176 43.9383 290.838 44.5594L292.656 36.7686ZM286.833 35.0941C285.721 34.6496 284.767 33.977 283.936 33.0315L277.926 38.3125C279.57 40.183 281.559 41.601 283.861 42.5219L286.833 35.0941ZM283.974 33.0762C283.509 32.5306 283.075 31.5972 283.075 29.848H275.075C275.075 32.9628 275.878 35.9121 277.888 38.2678L283.974 33.0762ZM283.075 29.848C283.075 28.5695 283.407 27.4891 284.067 26.4988L277.411 22.0612C275.852 24.3989 275.075 27.0305 275.075 29.848H283.075ZM284.054 26.5179C284.728 25.5194 285.767 24.6199 287.375 23.8943L284.087 16.6017C281.343 17.8388 279.054 19.6273 277.424 22.0421L284.054 26.5179ZM287.349 23.9061C288.948 23.1989 290.997 22.776 293.603 22.776V14.776C290.151 14.776 286.951 15.3344 284.113 16.5899L287.349 23.9061ZM293.603 22.776C297.435 22.776 299.918 23.7178 301.543 25.1268L306.783 19.0812C303.288 16.0528 298.731 14.776 293.603 14.776V22.776ZM301.568 25.1481C303.325 26.6454 304.378 28.6158 304.665 31.3523L312.621 30.5197C312.14 25.9175 310.207 21.9999 306.758 19.0599L301.568 25.1481ZM308.643 26.936H298.531V34.936H308.643V26.936ZM302.493 30.3895C302.188 28.1752 301.128 26.2294 299.313 24.8269L294.421 31.1571C294.46 31.1874 294.48 31.2083 294.489 31.218C294.497 31.2273 294.501 31.2337 294.505 31.2402C294.508 31.2465 294.545 31.3098 294.569 31.4825L302.493 30.3895ZM299.384 24.883C297.588 23.4296 295.418 22.904 293.283 22.904V30.904C293.711 30.904 293.982 30.9564 294.137 31.0035C294.282 31.0475 294.335 31.0891 294.35 31.101L299.384 24.883ZM293.283 22.904C291.549 22.904 289.583 23.2387 287.939 24.472L292.739 30.872C292.594 30.9805 292.516 30.9876 292.597 30.9665C292.685 30.9435 292.899 30.904 293.283 30.904V22.904ZM288.073 24.3758C286.266 25.6178 285.315 27.5328 285.315 29.656H293.315C293.315 29.7735 293.288 30.0399 293.125 30.3546C292.961 30.6738 292.745 30.8723 292.605 30.9682L288.073 24.3758ZM285.315 29.656C285.315 30.9023 285.653 32.1639 286.43 33.2816C287.183 34.366 288.189 35.0887 289.184 35.5661L292.646 28.3539C292.574 28.3193 292.781 28.402 293 28.7184C293.243 29.0681 293.315 29.4337 293.315 29.656H285.315ZM289.239 35.5918C290.747 36.2878 292.792 36.8728 295.167 37.4007L296.903 29.5912C294.67 29.0952 293.302 28.6562 292.591 28.3282L289.239 35.5918ZM295.035 37.3691C297.585 38.027 299.548 38.6569 300.981 39.2447L304.017 31.8433C302.122 31.0657 299.776 30.3304 297.035 29.6229L295.035 37.3691ZM301.063 39.2774C302.031 39.6498 302.932 40.2833 303.771 41.2961L309.931 36.1919C308.296 34.218 306.295 32.7182 303.935 31.8106L301.063 39.2774ZM303.852 41.3905C304.343 41.9478 304.805 42.9051 304.836 44.701L312.834 44.563C312.78 41.4095 311.919 38.4416 309.85 36.0975L303.852 41.3905ZM304.835 44.632C304.835 45.9042 304.49 46.9619 303.794 47.9312L310.292 52.5968C311.986 50.238 312.835 47.5412 312.835 44.632H304.835ZM303.782 47.9472C303.143 48.8472 302.109 49.7092 300.428 50.4201L303.546 57.7879C306.302 56.6215 308.639 54.9234 310.304 52.5808L303.782 47.9472ZM300.403 50.4312C298.826 51.1114 296.847 51.512 294.371 51.512V59.512C297.698 59.512 300.796 58.974 303.571 57.7768L300.403 50.4312Z" fill="#666666" mask="url(#path-1-outside-1_25_75)"/>
</g>
<defs>
<filter id="filter0_d_25_75" x="0.0880036" y="0.135962" width="316.347" height="66.976" filterUnits="userSpaceOnUse" color-interpolation-filters="sRGB">
<feFlood flood-opacity="0" result="BackgroundImageFix"/>
<feColorMatrix in="SourceAlpha" type="matrix" values="0 0 0 0 0 0 0 0 0 0 0 0 0 0 0 0 0 0 127 0" result="hardAlpha"/>
<feOffset dy="4"/>
<feGaussianBlur stdDeviation="3.8"/>
<feComposite in2="hardAlpha" operator="out"/>
<feColorMatrix type="matrix" values="0 0 0 0 0 0 0 0 0 0 0 0 0 0 0 0 0 0 0.25 0"/>
<feBlend mode="normal" in2="BackgroundImageFix" result="effect1_dropShadow_25_75"/>
<feBlend mode="normal" in="SourceGraphic" in2="effect1_dropShadow_25_75" result="shape"/>
</filter>
</defs>
</svg>
